<svg class="icon" viewBox="178.5 155.6 1701.5 1701.5" aria-hidden="true" focusable="false"><defs><mask id="k-idea-18-0"><rect x="0" y="0" width="2048" height="2048" fill="#fff"/><path fill="#000" d="M 1538 276.99 C 1581.52 274.572 1618.81 307.781 1621.43 351.288 C 1624.05 394.795 1591.01 432.238 1547.52 435.059 C 1503.74 437.899 1465.99 404.598 1463.36 360.805 C 1460.72 317.011 1494.19 279.423 1538 276.99 z"/></mask></defs><g mask="url(#k-idea-18-0)"><path fill="currentColor" d="M 1418.12 731.5 L 1652.53 731.24 L 1724.72 731.192 C 1744.41 731.166 1785.08 724.529 1780.5 755.569 C 1776.93 779.838 1753 774.945 1735.39 775.179 C 1723.7 775.335 1711.88 775.136 1700.25 775.113 L 1475.36 774.901 L 1414.24 774.874 C 1386.2 774.879 1364.33 771.939 1342.74 793.404 C 1334.9 801.121 1329.36 810.868 1326.75 821.554 C 1323.87 833.59 1324.82 866.442 1324.82 880.854 L 1324.89 979.161 L 1454.45 979.023 C 1475.36 979.003 1496.57 978.513 1517.35 979.548 C 1533.76 980.415 1542.26 1004.12 1530.64 1015.54 C 1520.33 1025.68 1504.96 1023.1 1491.45 1022.99 L 1242.35 1023 L 1169.86 1023.01 C 1156.35 1023 1134.22 1022.34 1121.57 1024.5 C 1108.54 1026.68 1096.52 1032.86 1087.17 1042.2 C 1064.67 1064.74 1069.9 1100.22 1069.95 1129.8 L 1070.2 1230.71 L 1203.89 1230.86 C 1222.45 1230.88 1241.39 1230.15 1259.95 1230.59 C 1285.89 1230.05 1285.27 1271.39 1264.58 1273.5 C 1245.72 1275.42 1216.92 1274.21 1197.67 1274.2 L 967.491 1274.23 L 906.63 1274.13 C 893.658 1274.09 875.461 1273.46 863.101 1275.56 C 850.632 1277.67 839.132 1283.62 830.2 1292.57 C 811.982 1310.71 812.244 1329.13 812.477 1353.17 C 812.598 1365.69 812.547 1378.5 812.585 1391.04 L 812.385 1483.13 L 944.089 1482.95 C 963.859 1482.91 985.028 1482.41 1004.8 1483.28 C 1009.38 1483.48 1013.86 1485.51 1017.37 1488.54 C 1022.15 1492.63 1025.01 1498.51 1025.28 1504.79 C 1025.65 1514.92 1016.46 1525.63 1006.15 1526.11 C 985.751 1527.05 965.133 1526.24 944.662 1526.25 L 807.5 1526.6 L 675.783 1526.66 C 655.985 1526.65 636.199 1526.53 616.408 1526.85 C 598.594 1527.15 585.983 1532.62 573.143 1544.64 C 549.152 1567.1 555.016 1605.47 555.11 1635.63 L 555.144 1735.51 L 686.951 1735.34 C 706.381 1735.29 725.903 1734.77 745.308 1735.33 C 767.766 1735.98 775.407 1761.1 760.316 1775.86 C 758.32 1777.81 749.812 1778.9 746.68 1779.02 C 719.776 1780.04 692.765 1779.59 665.826 1779.49 L 522.738 1779.31 L 380.918 1779.49 C 352.824 1779.59 324.647 1779.96 296.576 1778.9 C 285.349 1778.47 277.627 1768.86 277.58 1757.99 C 277.515 1752 279.881 1746.24 284.136 1742.03 C 291.305 1734.92 299.031 1735.25 308.45 1735.22 C 325.891 1735.17 343.333 1735.16 360.774 1735.15 L 510.95 1735.46 L 510.827 1632.48 C 510.809 1613.36 509.613 1579.32 513.669 1562.3 C 518.048 1544.27 527.277 1527.78 540.357 1514.62 C 553.855 1500.94 570.841 1491.21 589.473 1486.49 C 609.839 1481.32 647.711 1483 669.896 1483 L 767.911 1482.84 L 767.939 1388.4 C 767.943 1366.03 766.672 1327.63 771.92 1307.5 C 776.409 1290.24 785.482 1274.52 798.178 1262 C 812.417 1247.88 830.317 1238.01 849.861 1233.52 C 867.962 1229.22 902.909 1230.83 923.028 1230.88 L 1024.98 1230.97 L 1024.83 1135.53 C 1024.79 1088.88 1018.91 1048.74 1054.42 1012.75 C 1068.3 998.483 1085.77 988.242 1105 983.111 C 1125.88 977.532 1161 979.427 1183.89 979.382 L 1279.76 979.133 C 1280.44 938.772 1279.86 898.223 1279.96 857.852 C 1280 842.178 1279.3 827.695 1283.09 812.305 C 1287.74 793.271 1297.5 775.872 1311.34 761.994 C 1342.98 730.398 1377.37 731.591 1418.12 731.5 z"/><path fill="currentColor" d="M 1528.21 233.743 C 1595.92 225.843 1657.21 274.365 1665.05 342.086 C 1672.89 409.807 1624.32 471.051 1556.59 478.837 C 1488.94 486.614 1427.79 438.111 1419.95 370.47 C 1412.12 302.83 1460.57 241.633 1528.21 233.743 z"/></g><path fill="currentColor" d="M 1518.68 500.501 C 1535.8 500.32 1553.4 500.45 1570.32 500.14 C 1660.65 498.484 1742.49 565.633 1752.03 656.563 C 1753.62 671.744 1746.78 685.119 1730.2 684.454 C 1708.95 683.602 1708.55 665.28 1705.85 649.18 C 1691.19 581.625 1634.02 544.203 1567.11 543.918 C 1546.21 543.853 1518.77 542.973 1498.29 544.885 C 1445.08 549.854 1397.58 586.236 1381.48 637.65 C 1377.44 648.2 1377.94 670.232 1369.88 678.387 C 1355.24 693.205 1331.88 682.635 1332.94 661.541 C 1334.97 621.401 1352.65 584.254 1380.39 555.736 C 1418.66 516.387 1465.08 501.755 1518.68 500.501 z"/><path fill="var(--accent-text,#f37a3b)" d="M 1538.74 625.099 C 1555.88 623.1 1571.43 635.292 1573.58 652.417 C 1575.72 669.542 1563.67 685.198 1546.56 687.495 C 1529.24 689.821 1513.35 677.582 1511.18 660.245 C 1509 642.908 1521.38 627.123 1538.74 625.099 z"/></svg>