<svg class="icon" viewBox="299.8 250.5 1459.7 1459.7" aria-hidden="true" focusable="false"><defs><mask id="k-idea-16-0"><rect x="0" y="0" width="2048" height="2048" fill="#fff"/><path fill="#000" d="M 1009.41 478.447 C 1020.7 477.763 1035.74 478.196 1047 478.633 C 1187.02 484.87 1319 545.849 1414.51 648.438 C 1508.91 749.901 1558.88 884.865 1553.3 1023.34 C 1548.23 1128.72 1511.19 1230.06 1447.1 1313.86 C 1425.5 1341.76 1403.83 1363.72 1377.97 1387.42 C 1369.02 1380.79 1350.05 1361.41 1341.03 1352.65 L 1272.83 1286.71 C 1343.4 1224.89 1393.43 1137.28 1403.82 1043.47 C 1414.88 944.162 1386.11 844.521 1323.81 766.398 C 1259.61 687.142 1166.49 636.723 1065.03 626.29 C 961.886 615.66 858.775 646.685 778.627 712.465 C 776.978 713.741 775.359 715.056 773.773 716.41 C 698.573 780.355 651.609 871.365 643.063 969.706 C 636.804 1046.76 654.765 1123.84 694.438 1190.19 C 702.215 1203.06 718.094 1232.05 732.859 1234.22 C 738.354 1235.03 760.339 1211.64 765.886 1206.19 C 781.345 1191.06 796.7 1175.81 811.95 1160.46 C 845.443 1126.9 881.052 1092.51 913.881 1058.66 C 925.246 1080.17 934.502 1090.12 952.053 1106.15 C 930.446 1128.83 907.069 1151.19 884.931 1173.53 L 671.996 1386.6 C 666.137 1381.84 658.651 1375.15 653.085 1369.87 C 556.867 1278.66 501.393 1150.47 496.32 1018.89 C 491.828 883.216 540.641 751.171 632.305 651.038 C 729.496 544.881 865.54 482.616 1009.41 478.447 z"/><path fill="#000" d="M 1078.89 1112.98 L 1079.73 1113.72 C 1080.81 1120.91 1080.31 1149.41 1080.32 1157.82 L 1080.31 1248.74 L 1080.03 1562.06 C 1056.8 1561.94 1033.57 1561.95 1010.34 1562.08 C 998.964 1562.11 983.099 1562.59 972.154 1561.66 C 970.364 1559.77 971.023 1558.73 970.911 1555.25 L 970.92 1115.89 L 972.474 1116.42 C 1011.06 1129.62 1041.17 1131.43 1078.89 1112.98 z"/><path fill="#000" d="M 1008.1 909.865 C 1060.93 901.663 1110.41 937.838 1118.61 990.667 C 1126.82 1043.5 1090.65 1092.98 1037.82 1101.19 C 984.985 1109.4 935.498 1073.22 927.29 1020.39 C 919.082 967.553 955.262 918.069 1008.1 909.865 z"/></mask><mask id="k-idea-16-1"><rect x="0" y="0" width="2048" height="2048" fill="#fff"/><path fill="#000" d="M 1078.89 1112.98 L 1079.73 1113.72 C 1080.81 1120.91 1080.31 1149.41 1080.32 1157.82 L 1080.31 1248.74 L 1080.03 1562.06 C 1056.8 1561.94 1033.57 1561.95 1010.34 1562.08 C 998.964 1562.11 983.099 1562.59 972.154 1561.66 C 970.364 1559.77 971.023 1558.73 970.911 1555.25 L 970.92 1115.89 L 972.474 1116.42 C 1011.06 1129.62 1041.17 1131.43 1078.89 1112.98 z"/><path fill="#000" d="M 1008.1 909.865 C 1060.93 901.663 1110.41 937.838 1118.61 990.667 C 1126.82 1043.5 1090.65 1092.98 1037.82 1101.19 C 984.985 1109.4 935.498 1073.22 927.29 1020.39 C 919.082 967.553 955.262 918.069 1008.1 909.865 z"/></mask></defs><g mask="url(#k-idea-16-0)"><path fill="currentColor" d="M 995.83 454.43 C 1010.05 453.175 1036.14 453.746 1050.33 454.4 C 1197.97 461.668 1336.73 527.068 1436.31 636.315 C 1640.67 861.266 1621.96 1207.98 1392.19 1406.59 C 1388.14 1410.09 1381.53 1416.85 1375.85 1415.51 C 1365.6 1413.08 1357.77 1401.95 1350.31 1394.9 C 1330.86 1376.46 1311.62 1357.81 1292.59 1338.95 C 1277.63 1324.25 1261.74 1309.64 1247.42 1294.3 C 1244.55 1291.19 1242.67 1287.28 1244.78 1283.08 C 1250.28 1272.16 1263.12 1263.86 1271.57 1255.28 C 1282.13 1244.57 1291.89 1233.98 1301.34 1222.48 C 1345.77 1169.15 1373.06 1103.66 1379.66 1034.57 C 1389.19 940.672 1360.4 846.908 1299.82 774.539 C 1239.55 702.316 1149.22 657.515 1055.74 649.699 C 958.896 641.462 862.769 672.231 788.706 735.174 C 716.833 796.068 675.414 880.434 667.869 973.997 C 662.624 1039.82 676.254 1105.78 707.161 1164.13 C 714.504 1178.11 723.235 1193.2 733.414 1205.18 C 790.382 1147.49 847.738 1090.18 905.478 1033.26 C 903.855 1021.86 902.689 1014.43 902.902 1002.64 C 903.511 970.626 916.854 940.177 939.979 918.032 C 964.224 894.82 993.758 883.81 1027.32 884.838 C 1058.94 885.827 1088.88 899.276 1110.61 922.253 C 1132.56 946.033 1144.2 977.541 1142.97 1009.88 C 1141.74 1041.88 1127.82 1072.07 1104.29 1093.79 L 1104 1353.5 L 1103.95 1561.93 L 1507.11 1561.96 C 1531.36 1561.95 1664.51 1559.66 1673.63 1563.33 C 1676.82 1564.61 1680 1566.64 1681.01 1570.17 C 1681.75 1572.74 1681.04 1575.37 1679.77 1577.63 C 1677.32 1582 1672.72 1584.97 1667.88 1586.04 C 1661.34 1587.49 1617.5 1585.95 1607.78 1585.95 L 1418.12 1585.95 L 647.847 1585.97 L 463.858 1585.91 L 407.003 1585.93 C 399.343 1585.96 391.581 1586.5 383.932 1586.2 C 363.373 1585.41 357.797 1562.31 382.531 1561.87 C 402.939 1561.52 423.577 1561.79 443.995 1561.8 L 567.193 1561.89 L 945.944 1561.87 C 946.5 1424.18 944.544 1285.41 946.121 1147.78 C 911.464 1177.46 684.157 1413.46 675.259 1415.16 C 668.812 1416.39 660.699 1409.56 656.352 1405.66 C 545.856 1306.45 480.642 1176.79 472.485 1027.84 C 465.431 884.18 515.664 743.593 612.158 636.936 C 710.977 527.885 848.876 462.289 995.83 454.43 z"/></g><g mask="url(#k-idea-16-1)"><path fill="var(--accent-text,#f37a3b)" d="M 716.822 626.541 C 732.84 623.304 748.447 633.671 751.673 649.691 C 754.899 665.71 744.521 681.31 728.499 684.525 C 712.493 687.737 696.912 677.372 693.689 661.368 C 690.466 645.363 700.82 629.775 716.822 626.541 z"/></g><path fill="currentColor" d="M 1578.82 374.123 C 1602.73 372.639 1596.97 393.06 1596.92 410.979 L 1596.88 463.116 C 1610.76 463.275 1681.89 460.656 1688.87 466.366 C 1691.56 468.562 1692.85 471.952 1693.14 475.321 C 1693.41 478.489 1692.59 481.433 1690.4 483.779 C 1688.63 485.645 1686.31 486.912 1683.79 487.4 C 1676.72 488.828 1658.71 488.358 1650.74 488.335 L 1596.58 488.319 C 1596.32 514.054 1597.43 545.574 1595.4 571.213 C 1595.09 575.114 1591.72 577.678 1588.47 579.508 C 1587.3 579.702 1586.17 579.897 1584.99 579.918 C 1581.17 579.982 1577.38 579.253 1574.7 576.286 C 1569.16 570.16 1571.94 499.986 1572.01 488.355 L 1517.22 488.406 C 1509.59 488.411 1482.61 489.749 1479.27 484.672 C 1461.31 457.341 1507.56 462.696 1516.67 462.69 L 1571.13 462.681 L 1571.35 412.961 C 1571.41 401.304 1568.73 381.079 1578.82 374.123 z"/></svg>